<?xml version="1.0" standalone="no"?>
<!DOCTYPE svg PUBLIC "-//W3C//DTD SVG 20010904//EN"
 "http://www.w3.org/TR/2001/REC-SVG-20010904/DTD/svg10.dtd">
<svg version="1.0" xmlns="http://www.w3.org/2000/svg"
 width="463.000000pt" height="641.000000pt" viewBox="0 0 463.000000 641.000000"
 preserveAspectRatio="xMidYMid meet">
<metadata>
Created by potrace 1.15, written by Peter Selinger 2001-2017
</metadata>
<g transform="translate(0.000000,641.000000) scale(0.100000,-0.100000)"
fill="#000000" stroke="none">
<path d="M2105 6143 c-207 -12 -499 -49 -600 -77 -315 -89 -528 -188 -826
-386 -172 -115 -340 -242 -382 -288 -18 -19 -17 -21 20 -71 86 -115 206 -364
247 -516 8 -27 25 -89 39 -136 74 -249 56 -613 -40 -836 -45 -105 -127 -245
-187 -318 -25 -31 -46 -65 -46 -74 0 -30 67 -218 113 -313 109 -232 298 -497
487 -686 l122 -122 32 19 c119 73 259 151 264 147 4 -2 30 -37 57 -78 221
-327 452 -537 692 -631 82 -31 246 -31 315 0 144 67 341 240 480 425 88 116
105 142 177 265 l43 72 31 -16 c18 -9 90 -47 161 -85 l128 -69 26 23 c83 74
215 237 307 378 105 162 254 480 325 694 l32 98 -50 52 c-122 126 -234 343
-273 531 -23 106 -28 376 -9 490 17 108 65 288 111 420 41 118 147 344 176
377 14 16 14 20 -1 43 -49 75 -386 305 -575 393 -186 86 -512 193 -741 243
-132 29 -436 44 -655 32z m585 -47 c132 -20 200 -37 370 -91 301 -96 525 -195
675 -296 112 -76 265 -192 295 -224 l24 -26 -57 -108 c-100 -190 -203 -499
-233 -706 -20 -136 -14 -423 11 -525 43 -177 135 -355 263 -508 l45 -54 -13
-56 c-13 -62 -102 -292 -158 -412 -69 -146 -186 -340 -273 -452 -122 -157
-201 -240 -221 -233 -9 4 -81 42 -160 86 -79 43 -148 79 -155 79 -6 0 -30 -35
-54 -77 -91 -167 -202 -316 -334 -449 -126 -126 -199 -185 -283 -226 -63 -31
-73 -33 -172 -33 -119 1 -166 15 -286 87 -207 124 -381 303 -569 586 -26 39
-50 72 -51 72 -2 0 -55 -31 -117 -69 -62 -38 -130 -78 -151 -88 l-38 -18 -122
125 c-191 196 -302 354 -441 625 -67 131 -100 209 -111 259 l-16 71 76 113
c143 211 206 372 232 587 26 218 7 407 -65 638 -69 221 -144 388 -238 529 -39
60 -43 70 -31 87 22 31 113 101 288 220 91 63 172 119 180 127 33 28 212 123
335 176 72 31 195 76 275 101 157 48 217 59 510 92 167 18 623 13 770 -9z"/>
<path d="M3033 5663 c-11 -15 -44 -71 -73 -123 -30 -52 -67 -114 -82 -137
l-28 -41 -187 -2 c-103 0 -191 -4 -195 -8 -3 -4 36 -78 88 -164 52 -87 94
-164 94 -171 0 -13 -138 -271 -166 -312 -33 -47 -27 -48 175 -41 l190 8 31
-44 c17 -23 68 -100 112 -170 44 -71 84 -128 89 -128 4 0 36 51 70 113 78 141
111 199 124 219 11 17 115 28 283 28 80 0 102 3 102 14 0 8 -41 82 -91 166
-49 84 -88 159 -85 165 2 7 43 84 90 171 47 87 86 162 86 167 0 5 -80 8 -197
6 l-198 -4 -101 152 c-55 84 -103 155 -106 158 -3 4 -15 -6 -25 -22z m102
-149 c44 -69 88 -136 98 -149 l17 -24 180 6 c99 3 180 3 180 -1 0 -4 -38 -78
-85 -166 l-85 -159 85 -140 c47 -77 85 -145 85 -150 0 -5 -78 -12 -173 -16
l-172 -7 -43 -76 c-24 -43 -65 -115 -91 -161 l-49 -85 -102 158 -103 157 -171
-1 c-94 0 -175 -1 -180 0 -5 0 -4 6 1 13 6 6 33 55 60 107 28 52 62 115 76
139 l26 44 -34 68 c-19 37 -59 108 -89 157 -30 50 -52 93 -49 96 4 3 81 6 172
6 91 0 172 4 179 8 14 9 14 9 112 185 36 64 67 117 70 117 3 0 41 -57 85 -126z"/>
<path d="M1220 5491 c-51 -89 -96 -163 -99 -166 -4 -2 -94 -7 -199 -11 -106
-4 -192 -9 -192 -12 0 -4 47 -88 144 -256 l45 -79 -28 -56 c-16 -31 -56 -105
-90 -166 -34 -60 -61 -113 -61 -116 0 -4 85 -4 188 -1 l188 5 108 -172 c60
-95 112 -169 116 -164 5 4 40 64 79 133 38 69 81 143 94 166 l25 41 98 6 c55
4 145 7 202 7 59 0 102 4 102 10 0 9 -83 151 -160 272 -24 38 -36 67 -32 77 7
16 51 97 128 233 24 42 44 82 44 89 0 9 -49 11 -191 8 l-192 -4 -94 140 c-52
77 -102 148 -112 158 -18 18 -21 13 -111 -142z m136 57 c17 -24 59 -86 94
-138 35 -52 69 -98 75 -103 5 -4 85 -5 178 -1 101 4 167 3 167 -3 0 -5 -22
-47 -48 -93 -27 -47 -65 -115 -85 -151 l-36 -66 36 -54 c69 -105 153 -241 153
-248 0 -5 -82 -11 -182 -14 -160 -5 -185 -9 -196 -24 -8 -10 -50 -82 -93 -161
-44 -78 -83 -141 -87 -138 -4 2 -50 72 -102 155 l-94 151 -174 0 -173 0 50 93
c27 50 63 117 80 147 17 30 31 61 31 67 0 7 -39 78 -86 158 -48 80 -85 147
-83 149 5 4 221 16 299 16 l55 0 52 88 c28 48 68 115 88 150 20 34 39 62 44
62 4 0 21 -19 37 -42z"/>
<path d="M2148 4363 c-98 -116 -198 -242 -198 -252 0 -5 16 -42 35 -82 72
-153 154 -396 162 -481 8 -93 -9 -88 -41 12 -79 246 -243 443 -421 505 -108
38 -254 14 -338 -56 l-32 -27 1 -128 c1 -111 5 -140 27 -209 26 -78 120 -238
164 -278 20 -17 20 -16 26 48 8 85 34 141 85 188 35 30 50 37 85 37 83 0 211
-83 273 -178 l27 -43 -26 -25 c-29 -26 -34 -61 -16 -96 9 -17 7 -24 -15 -45
-14 -13 -28 -34 -32 -47 -7 -28 18 -81 42 -90 13 -5 14 -9 4 -20 -27 -33 -8
-109 30 -121 11 -3 20 -12 20 -18 0 -7 -22 -47 -50 -90 -82 -129 -168 -166
-248 -107 -16 12 -40 40 -53 63 l-23 41 -14 -34 c-21 -52 -10 -164 22 -228 29
-57 74 -112 117 -143 l29 -20 53 24 c109 51 208 179 257 332 26 81 45 109 56
81 10 -27 -10 -101 -55 -206 l-39 -92 90 -135 c50 -76 93 -132 98 -127 5 5 42
66 83 136 l74 127 -48 98 c-62 125 -93 239 -59 218 5 -3 27 -43 48 -88 68
-143 173 -262 280 -316 38 -19 45 -20 70 -7 36 19 98 95 125 154 32 70 30 272
-3 272 -6 0 -10 -7 -10 -17 0 -24 -46 -81 -80 -98 -87 -45 -184 8 -251 138
l-20 38 30 24 c36 31 46 67 28 102 -13 24 -12 29 9 61 13 19 24 38 24 41 0 4
-15 27 -32 51 -27 36 -33 54 -33 94 0 39 -4 51 -22 64 -13 8 -23 20 -23 26 0
21 85 130 139 178 92 83 189 97 264 38 41 -33 77 -118 84 -199 3 -39 10 -71
14 -71 18 0 80 77 113 140 61 115 81 199 81 335 0 68 -6 138 -13 162 -11 37
-19 45 -74 72 -70 35 -138 40 -244 17 -181 -39 -376 -262 -459 -526 -29 -89
-39 -108 -49 -92 -19 31 76 366 157 559 l35 82 -129 148 c-71 81 -129 151
-129 155 0 20 -21 2 -82 -69z m161 -58 c50 -58 105 -121 122 -140 l31 -35 -55
-147 c-31 -82 -70 -197 -87 -258 -34 -118 -50 -248 -32 -259 22 -13 43 8 58
61 75 259 248 480 429 549 76 29 195 26 260 -6 44 -22 52 -31 68 -75 21 -61
18 -216 -8 -315 -23 -87 -112 -260 -135 -260 -4 0 -10 27 -13 60 -18 172 -159
273 -292 211 -60 -28 -140 -105 -196 -187 -33 -50 -56 -74 -69 -74 -26 0 -26
4 13 80 124 247 294 379 437 340 65 -18 98 -64 126 -175 7 -27 8 -28 12 -7 6
35 -25 124 -53 154 -43 47 -82 61 -147 55 -32 -3 -78 -15 -104 -27 -100 -49
-214 -184 -290 -343 l-35 -74 -51 -6 c-29 -4 -54 -5 -56 -3 -2 3 -6 50 -9 105
-4 63 -10 98 -16 94 -6 -4 -8 -43 -4 -104 l6 -99 -62 0 -62 1 -45 82 c-66 120
-179 231 -293 287 -70 35 -98 44 -138 43 -71 -1 -106 -19 -136 -70 -29 -50
-43 -157 -25 -189 9 -15 11 -5 12 51 1 97 25 148 84 176 43 22 46 22 110 6
125 -31 303 -180 374 -314 37 -70 39 -83 15 -83 -10 0 -31 20 -48 47 -41 66
-126 147 -182 174 -27 12 -74 24 -105 27 -47 4 -63 0 -94 -18 -48 -30 -91
-100 -106 -172 -7 -32 -15 -58 -18 -58 -10 0 -78 109 -110 174 -37 77 -60 191
-60 296 0 73 2 83 25 106 34 34 105 64 175 74 218 31 452 -185 559 -515 21
-65 30 -81 48 -83 32 -5 39 35 24 128 -13 74 -100 322 -160 453 l-32 68 118
150 c65 82 121 149 124 149 4 0 48 -47 98 -105z m141 -915 c20 -20 26 -55 12
-77 -5 -8 -81 -15 -232 -22 -223 -11 -225 -11 -242 10 -21 25 -23 49 -4 74 11
16 33 19 157 25 270 13 287 12 309 -10z m53 -141 c22 -28 22 -64 -2 -88 -24
-24 -69 -29 -323 -35 -227 -5 -238 -2 -238 64 0 62 24 69 253 78 253 11 287 8
310 -19z m-5 -161 c17 -37 -6 -84 -45 -92 -16 -3 -123 -7 -239 -8 -235 -3
-244 -1 -244 58 0 24 6 37 22 45 12 7 105 14 227 19 273 10 263 10 279 -22z
m-118 -172 c17 -36 53 -92 82 -126 56 -67 135 -133 150 -124 5 3 -8 18 -29 34
-62 45 -119 111 -162 185 -48 81 -50 95 -17 95 20 0 31 -12 56 -59 64 -119
161 -186 238 -163 21 7 57 28 79 47 l42 36 7 -37 c8 -43 -9 -132 -37 -191 -22
-46 -90 -113 -114 -113 -47 0 -170 96 -228 178 -18 25 -54 88 -82 141 -50 96
-68 112 -89 79 -15 -25 14 -132 64 -235 l41 -83 -62 -110 c-34 -61 -65 -112
-68 -114 -3 -2 -8 118 -9 267 -2 150 -8 279 -13 287 -7 13 -9 13 -9 0 -3 -41
1 -319 6 -420 l5 -115 -26 30 c-14 17 -46 63 -72 103 l-46 74 43 105 c50 120
61 191 35 213 -28 23 -47 0 -85 -102 -59 -155 -117 -234 -219 -300 -64 -40
-81 -37 -140 29 -56 63 -79 118 -88 211 -7 70 3 79 36 33 11 -16 36 -36 55
-45 85 -40 167 -1 246 119 27 42 52 84 55 94 6 20 42 35 50 22 2 -5 -17 -50
-43 -102 -45 -90 -118 -181 -167 -207 -11 -6 -17 -14 -13 -18 13 -12 86 46
124 98 20 26 57 90 82 141 l47 92 53 3 c42 2 52 0 52 -12 0 -9 5 -16 10 -16 6
0 10 7 10 14 0 11 15 16 53 19 28 2 55 4 59 5 4 1 21 -27 38 -62z"/>
<path d="M4092 3073 c-10 -16 -27 -49 -37 -75 -11 -30 -46 -79 -94 -131 -88
-97 -129 -165 -137 -233 -6 -45 -14 -57 -110 -156 -97 -99 -104 -109 -104
-147 0 -30 7 -49 29 -74 39 -44 46 -76 27 -121 -19 -45 -44 -56 -166 -67 -306
-30 -500 -118 -764 -348 -187 -164 -221 -190 -282 -221 -109 -54 -216 -51
-349 10 -33 15 -141 80 -240 143 -234 151 -280 177 -401 225 -113 46 -182 64
-299 82 -263 39 -292 47 -342 93 -32 29 -29 68 12 131 59 93 47 135 -63 234
-57 50 -74 72 -88 115 -30 91 -81 171 -143 225 -32 28 -64 66 -71 84 -7 18
-23 47 -34 63 -12 17 -28 43 -36 59 -20 38 -39 44 -61 17 -16 -19 -18 -38 -16
-130 2 -59 7 -113 12 -121 5 -8 12 -73 15 -143 l6 -128 52 -102 c58 -113 60
-127 36 -243 -22 -106 -14 -179 30 -269 54 -110 132 -179 255 -226 27 -10 118
-32 203 -49 228 -47 499 -154 638 -253 319 -227 460 -287 682 -287 174 0 324
36 464 112 101 56 126 73 244 171 52 44 127 100 165 125 39 25 81 53 95 62 98
66 249 116 495 165 44 9 103 27 131 39 70 32 155 119 195 202 30 61 34 80 37
164 3 83 0 104 -23 165 -14 39 -29 77 -31 85 -3 9 16 42 44 77 73 91 86 132
79 254 -4 73 -1 112 8 140 16 43 18 262 3 292 -13 25 -44 21 -66 -10z m45
-129 c1 -84 -4 -138 -13 -159 -9 -23 -11 -61 -7 -141 7 -129 -4 -164 -81 -252
-25 -30 -46 -60 -46 -68 0 -9 11 -39 25 -67 55 -118 57 -227 5 -333 -59 -121
-154 -195 -290 -227 -289 -69 -356 -89 -462 -143 -88 -45 -209 -127 -326 -223
-170 -139 -287 -203 -461 -252 -99 -28 -293 -30 -391 -5 -173 46 -293 108
-505 264 -157 115 -423 216 -735 277 -234 46 -377 187 -388 383 -2 50 2 101
12 145 26 109 23 118 -68 278 -16 27 -21 61 -26 159 -3 69 -11 136 -17 150 -6
14 -12 70 -14 125 -4 89 -2 100 13 103 12 2 22 -6 29 -25 6 -15 19 -37 29 -48
11 -11 26 -36 34 -55 8 -20 44 -64 79 -99 72 -70 103 -122 136 -221 19 -58 28
-71 86 -118 104 -85 113 -125 49 -209 -14 -19 -28 -52 -31 -74 -5 -36 -2 -44
28 -75 43 -44 125 -70 284 -90 194 -24 341 -66 475 -135 53 -27 245 -145 381
-234 118 -77 137 -87 218 -114 79 -26 190 -28 258 -5 54 18 158 86 219 141
220 204 323 281 460 344 114 53 199 74 384 99 170 22 196 33 217 91 18 49 6
98 -33 141 -19 21 -34 45 -34 54 0 29 28 69 89 127 98 93 127 136 135 191 8
63 44 125 121 206 74 79 97 110 120 173 31 81 41 61 42 -79z"/>
<path d="M1182 1742 c-26 -80 -26 -82 -9 -82 7 0 17 11 23 24 7 20 13 22 31
15 12 -4 29 -24 37 -44 23 -53 48 -44 27 10 -6 14 -2 28 10 44 30 38 24 60
-23 81 -67 30 -72 28 -96 -48z"/>
</g>
</svg>
